<svg width="16" height="16" viewBox="0 0 16 16" fill="none" xmlns="http://www.w3.org/2000/svg">
<path d="M11.5171 1.71344C11.7319 1.32957 11.596 0.840245 11.1927 0.664693C9.75086 0.0370914 8.14979 -0.153989 6.59029 0.125184C4.76841 0.451327 3.11598 1.39909 1.91455 2.80699C0.713122 4.21489 0.0370312 5.99582 0.00147625 7.84632C-0.0340787 9.69682 0.573102 11.5024 1.71956 12.9554C2.86602 14.4084 4.48083 15.419 6.28884 15.8149C8.09684 16.2107 9.98619 15.9675 11.6349 15.1265C13.2837 14.2855 14.5899 12.8989 15.3309 11.2029C15.9651 9.75111 16.1518 8.14952 15.8768 6.60121C15.7999 6.16812 15.3556 5.92215 14.9323 6.04173V6.04173C14.509 6.16131 14.268 6.60133 14.3342 7.03619C14.5155 8.22729 14.3579 9.45128 13.8712 10.5652C13.2777 11.9235 12.2317 13.034 10.9112 13.7075C9.59071 14.3811 8.07756 14.5759 6.62955 14.2588C5.18154 13.9418 3.88826 13.1324 2.97007 11.9687C2.05189 10.805 1.5656 9.35896 1.59408 7.87692C1.62255 6.39487 2.16403 4.96855 3.12624 3.84098C4.08845 2.71341 5.41186 1.95436 6.87098 1.69315C8.06751 1.47896 9.29458 1.61041 10.4108 2.06376C10.8184 2.22927 11.3024 2.09731 11.5171 1.71344V1.71344Z" fill="#00B84D"/>
<rect x="4.11206" y="7.0647" width="5.2016" height="1.6" rx="0.8" transform="rotate(45 4.11206 7.0647)" fill="#00B84D"/>
<rect x="5.53516" y="10.716" width="11.0291" height="1.6" rx="0.8" transform="rotate(-45 5.53516 10.716)" fill="#00B84D"/>
</svg>
