<svg width="1195" height="100" viewBox="0 0 1195 100" fill="none" xmlns="http://www.w3.org/2000/svg">
<path opacity="0.3" d="M60.4 81.8V76.4H111.4V81.8L100.4 82.8C98.2667 83.0667 97 83.6 96.6 84.4C96.2 85.2 96 87.9333 96 92.6V138H91.2C88.6667 134.133 85.6667 131.067 82.2 128.8C78.3333 132.267 73.8 135 68.6 137C63.5333 139 57.6667 140 51 140C40.3333 140 31.2667 137.4 23.8 132.2C16.3333 126.867 10.6 119.467 6.6 110C2.73333 100.533 0.8 89.5333 0.8 77V62C0.8 49.7333 2.73333 38.9333 6.6 29.6C10.6 20.2667 16.4 13 24 7.8C31.7333 2.59999 41.0667 -1.14441e-05 52 -1.14441e-05C62.5333 -1.14441e-05 71.2 1.99999 78 5.99999C84.9333 9.86666 89.8667 15 92.8 21.4C95.8667 27.8 96.8667 34.6667 95.8 42L78.6 46.2C80.0667 33.4 78.4667 23.6 73.8 16.8C69.1333 9.86666 61.8667 6.39999 52 6.39999C41.3333 6.39999 33.2667 10.1333 27.8 17.6C22.4667 25.0667 19.8 36.9333 19.8 53.2V86.6C19.8 102.867 22.5333 114.8 28 122.4C33.6 129.867 41.8 133.6 52.6 133.6C58.0667 133.6 63.1333 132.6 67.8 130.6C72.6 128.6 76.6 125.4 79.8 121V92.6C79.8 87.9333 79.6 85.2 79.2 84.4C78.8 83.4667 77.5333 82.9333 75.4 82.8L60.4 81.8ZM216.083 105.4H221.283V138H125.483V132.8L136.483 131.6C138.616 131.333 139.883 130.8 140.283 130C140.683 129.2 140.883 126.467 140.883 121.8V18.2C140.883 13.5333 140.683 10.8 140.283 9.99999C139.883 9.19999 138.616 8.66666 136.483 8.4L125.483 7.39999V2H218.683V34.6H213.683L207.883 13.6C207.483 12 207.016 10.8667 206.483 10.2C206.083 9.39999 205.216 8.93333 203.883 8.79999C202.549 8.53333 200.283 8.4 197.083 8.4H158.283V66.2H185.083C188.283 66.2 190.549 66.1333 191.883 66C193.216 65.7333 194.083 65.2667 194.483 64.6C195.016 63.8 195.483 62.6 195.883 61L199.683 46H204.883V92.8H199.683L195.883 77.8C195.483 76.2 195.016 75.0667 194.483 74.4C194.083 73.6 193.216 73.1333 191.883 73C190.549 72.7333 188.283 72.6 185.083 72.6H158.283V131.6H199.483C202.683 131.6 204.949 131.533 206.283 131.4C207.616 131.133 208.483 130.667 208.883 130C209.416 129.2 209.883 128 210.283 126.4L216.083 105.4ZM234.498 2H340.898V34.6H335.698L329.898 13.6C329.498 12 329.032 10.8667 328.498 10.2C328.098 9.39999 327.232 8.93333 325.898 8.79999C324.565 8.53333 322.298 8.4 319.098 8.4H296.498V121.8C296.498 126.467 296.698 129.2 297.098 130C297.498 130.8 298.765 131.333 300.898 131.6L311.898 132.8V138H263.698V132.8L274.698 131.6C276.832 131.333 278.098 130.8 278.498 130C278.898 129.2 279.098 126.467 279.098 121.8V8.4H256.298C253.232 8.4 250.965 8.53333 249.498 8.79999C248.165 8.93333 247.232 9.39999 246.698 10.2C246.298 10.8667 245.898 12 245.498 13.6L239.698 34.6H234.498V2ZM442.93 133.6C451.863 133.6 459.063 131.4 464.53 127C470.13 122.6 472.93 116.133 472.93 107.6C472.93 100.8 470.863 95.1333 466.73 90.6C462.596 85.9333 455.396 82.2 445.13 79.4L431.33 75.4C421.196 72.6 413.463 67.8667 408.13 61.2C402.796 54.5333 400.13 46.4 400.13 36.8C400.13 30.4 401.596 24.4 404.53 18.8C407.596 13.2 412.196 8.66666 418.33 5.19999C424.596 1.73332 432.53 -1.14441e-05 442.13 -1.14441e-05C452.796 -1.14441e-05 461.396 1.99999 467.93 5.99999C474.463 9.86666 478.996 14.9333 481.53 21.2C484.063 27.4667 484.663 34.2 483.33 41.4L466.53 45C468.263 32.6 466.996 23.0667 462.73 16.4C458.596 9.73332 451.396 6.39999 441.13 6.39999C432.996 6.39999 426.596 8.59999 421.93 13C417.263 17.2667 414.93 23.5333 414.93 31.8C414.93 38.3333 416.796 43.9333 420.53 48.6C424.263 53.1333 430.863 56.7333 440.33 59.4L454.13 63.4C476.396 69.5333 487.53 82.5333 487.53 102.4C487.53 109.467 485.863 115.867 482.53 121.6C479.33 127.2 474.396 131.667 467.73 135C461.196 138.333 452.93 140 442.93 140C435.996 140 429.33 138.933 422.93 136.8C416.663 134.667 411.263 131 406.73 125.8C402.33 120.6 399.396 113.4 397.93 104.2L409.93 100.2C410.596 109 412.53 115.8 415.73 120.6C418.93 125.4 422.93 128.8 427.73 130.8C432.53 132.667 437.596 133.6 442.93 133.6ZM501.1 2H607.5V34.6H602.3L596.5 13.6C596.1 12 595.633 10.8667 595.1 10.2C594.7 9.39999 593.833 8.93333 592.5 8.79999C591.167 8.53333 588.9 8.4 585.7 8.4H563.1V121.8C563.1 126.467 563.3 129.2 563.7 130C564.1 130.8 565.367 131.333 567.5 131.6L578.5 132.8V138H530.3V132.8L541.3 131.6C543.433 131.333 544.7 130.8 545.1 130C545.5 129.2 545.7 126.467 545.7 121.8V8.4H522.9C519.833 8.4 517.567 8.53333 516.1 8.79999C514.767 8.93333 513.833 9.39999 513.3 10.2C512.9 10.8667 512.5 12 512.1 13.6L506.3 34.6H501.1V2ZM637.858 132.8V138H599.858V132.8L610.658 131.6C612.124 131.467 613.191 131.267 613.858 131C614.524 130.6 615.124 129.8 615.658 128.6C616.324 127.267 617.124 125 618.058 121.8L656.658 2H669.258L708.258 121.8C709.191 125 709.924 127.267 710.458 128.6C711.124 129.8 711.791 130.6 712.458 131C713.124 131.267 714.124 131.467 715.458 131.6L726.458 132.8V138H677.858V132.8L688.858 131.6C690.991 131.333 692.124 130.8 692.258 130C692.524 129.067 691.924 126.333 690.458 121.8L682.258 96.2H633.458L625.258 121.8C623.791 126.333 623.124 129.067 623.258 130C623.524 130.8 624.724 131.333 626.858 131.6L637.858 132.8ZM635.458 89.8H680.258L657.858 20.2L635.458 89.8ZM735.444 7.39999V2H791.044C804.11 2 814.11 5.13333 821.044 11.4C828.11 17.5333 831.644 25.7333 831.644 36V42.2C831.644 50.3333 829.377 57.2667 824.844 63C820.444 68.6 814.11 72.4667 805.844 74.6L831.444 121.8C833.177 125 834.444 127.267 835.244 128.6C836.044 129.8 836.777 130.6 837.444 131C838.244 131.267 839.31 131.467 840.644 131.6L849.644 132.8V138H819.444L787.844 76.4H768.244V121.8C768.244 126.467 768.444 129.2 768.844 130C769.244 130.8 770.51 131.333 772.644 131.6L783.644 132.8V138H735.444V132.8L746.444 131.6C748.577 131.333 749.844 130.8 750.244 130C750.644 129.2 750.844 126.467 750.844 121.8V18.2C750.844 13.5333 750.644 10.8 750.244 9.99999C749.844 9.19999 748.577 8.66666 746.444 8.4L735.444 7.39999ZM791.044 8.4H768.244V70H791.044C797.977 70 803.377 67.8 807.244 63.4C811.244 58.8667 813.244 52.0667 813.244 43V35.2C813.244 26.1333 811.244 19.4 807.244 15C803.377 10.6 797.977 8.4 791.044 8.4ZM853.053 2H959.453V34.6H954.253L948.453 13.6C948.053 12 947.586 10.8667 947.053 10.2C946.653 9.39999 945.786 8.93333 944.453 8.79999C943.12 8.53333 940.853 8.4 937.653 8.4H915.053V121.8C915.053 126.467 915.253 129.2 915.653 130C916.053 130.8 917.32 131.333 919.453 131.6L930.453 132.8V138H882.253V132.8L893.253 131.6C895.386 131.333 896.653 130.8 897.053 130C897.453 129.2 897.653 126.467 897.653 121.8V8.4H874.853C871.786 8.4 869.52 8.53333 868.053 8.79999C866.72 8.93333 865.786 9.39999 865.253 10.2C864.853 10.8667 864.453 12 864.053 13.6L858.253 34.6H853.053V2ZM1062.37 105.4H1067.57V138H971.772V132.8L982.772 131.6C984.905 131.333 986.172 130.8 986.572 130C986.972 129.2 987.172 126.467 987.172 121.8V18.2C987.172 13.5333 986.972 10.8 986.572 9.99999C986.172 9.19999 984.905 8.66666 982.772 8.4L971.772 7.39999V2H1064.97V34.6H1059.97L1054.17 13.6C1053.77 12 1053.31 10.8667 1052.77 10.2C1052.37 9.39999 1051.51 8.93333 1050.17 8.79999C1048.84 8.53333 1046.57 8.4 1043.37 8.4H1004.57V66.2H1031.37C1034.57 66.2 1036.84 66.1333 1038.17 66C1039.51 65.7333 1040.37 65.2667 1040.77 64.6C1041.31 63.8 1041.77 62.6 1042.17 61L1045.97 46H1051.17V92.8H1045.97L1042.17 77.8C1041.77 76.2 1041.31 75.0667 1040.77 74.4C1040.37 73.6 1039.51 73.1333 1038.17 73C1036.84 72.7333 1034.57 72.6 1031.37 72.6H1004.57V131.6H1045.77C1048.97 131.6 1051.24 131.533 1052.57 131.4C1053.91 131.133 1054.77 130.667 1055.17 130C1055.71 129.2 1056.17 128 1056.57 126.4L1062.37 105.4ZM1087.79 7.39999V2H1144.59C1160.85 2 1173.32 7.26666 1181.99 17.8C1190.65 28.3333 1194.99 43.2 1194.99 62.4V77.4C1194.99 96.7333 1190.65 111.667 1181.99 122.2C1173.32 132.733 1160.85 138 1144.59 138H1087.79V132.8L1098.79 131.6C1100.92 131.333 1102.19 130.8 1102.59 130C1102.99 129.2 1103.19 126.467 1103.19 121.8V18.2C1103.19 13.5333 1102.99 10.8 1102.59 9.99999C1102.19 9.19999 1100.92 8.66666 1098.79 8.4L1087.79 7.39999ZM1144.19 8.4H1120.59V131.6H1144.19C1151.39 131.6 1157.32 130.267 1161.99 127.6C1166.65 124.933 1170.12 120.4 1172.39 114C1174.79 107.467 1175.99 98.6 1175.99 87.4V52.4C1175.99 41.3333 1174.79 32.6 1172.39 26.2C1170.12 19.8 1166.65 15.2667 1161.99 12.6C1157.32 9.8 1151.39 8.4 1144.19 8.4Z" fill="url(#paint0_linear_2_149)"/>
<defs>
<linearGradient id="paint0_linear_2_149" x1="592.3" y1="183" x2="603.7" y2="-57" gradientUnits="userSpaceOnUse">
<stop stop-color="#FFC75E"/>
<stop offset="1" stop-color="#999999"/>
</linearGradient>
</defs>
</svg>
