<svg width="100" height="100" viewBox="0 0 100 100" fill="none" xmlns="http://www.w3.org/2000/svg">
<rect width="100" height="100" fill="#262626"/>
<path d="M20.5936 66.4571L31.9973 60.579L35.0945 55.6185L37.2124 43.0201L31.0041 46.0753L32.0533 50.2552C32.417 51.7072 31.5357 53.1677 30.0976 53.5286C29.8822 53.5874 29.6584 53.6125 29.4402 53.6125C28.2315 53.6069 27.1376 52.7928 26.8242 51.573L25.2435 45.2779C24.9357 44.0497 25.5317 42.7683 26.6731 42.1976C26.6731 42.1976 41.5098 34.915 41.5797 34.8898C42.7156 34.3638 44.0082 34.1428 45.3343 34.3358C47.083 34.582 48.5742 35.4745 49.6093 36.7419C49.6905 36.8175 56.7857 45.5549 56.7857 45.5549L62.2413 47.0238C63.6794 47.4183 64.5299 48.8927 64.141 50.3363C63.8165 51.5394 62.7281 52.3312 61.5391 52.3312C61.3069 52.3312 61.0691 52.3004 60.834 52.2388L54.5334 50.5434C53.9851 50.3895 53.4983 50.0761 53.1401 49.6369L50.3172 46.1481L48.2888 57.4119L51.842 60.2377C52.9023 61.0882 53.3556 62.4815 52.9919 63.7881L48.8819 78.5352C48.4679 80.0236 47.1109 81 45.6365 81C45.3371 81 45.0322 80.958 44.73 80.8741C42.9366 80.3761 41.8875 78.5184 42.3883 76.7278L45.8967 64.1322L40.4466 59.9411L37.2264 64.9519C36.9046 65.4723 36.4514 65.8864 35.9086 66.1718L23.6795 72.4668C23.1843 72.7242 22.6639 72.8445 22.1352 72.8445C20.9097 72.8445 19.7403 72.1786 19.1359 71.0175C18.2882 69.3389 18.9401 67.3105 20.5936 66.4571Z" fill="url(#paint0_linear_52_15)"/>
<path d="M47.9335 34.3694C43.9655 34.3694 40.7488 31.1527 40.7488 27.1847C40.7488 23.2167 43.9655 20 47.9335 20C51.9015 20 55.1182 23.2167 55.1182 27.1847C55.1182 31.1527 51.9015 34.3694 47.9335 34.3694Z" fill="url(#paint1_linear_52_15)"/>
<path d="M81.4812 48.8015C81.3946 47.8913 81.0283 47.0839 80.4763 46.5859L78.5889 44.8835C79.4038 42.9743 78.366 42.4057 78.0111 42.0855C77.6365 41.7476 73.0117 37.576 73.0117 37.576C73.0117 37.576 68.3871 33.4045 68.0125 33.0666C67.6575 32.7464 66.8723 31.6707 65.8682 33.4091L63.9808 31.7067C63.4289 31.2088 62.7343 31.0595 62.0753 31.297C61.2765 31.5851 60.5808 32.4131 60.112 33.6317C59.879 34.1506 58.7775 36.9027 59.8281 40.5144C60.362 42.3498 61.0853 43.6925 61.8385 44.7232C62.002 44.9522 62.1706 45.1775 62.3496 45.3961C62.3502 45.4027 62.3508 45.4094 62.3516 45.4161C63.5247 54.9525 64.7124 51.1191 62.0393 56.4793C61.0029 58.5574 59.2197 55.9737 58.4243 57.5687C57.6289 59.1637 56.6323 56.3616 55.8414 58.3919C55.3565 59.6364 57.4515 62.787 59.5122 64.6457C61.5726 66.5043 64.5353 67.9157 65.2074 66.8402C66.3039 65.0856 63.998 64.9087 64.7934 63.3138C65.5888 61.7187 63.1348 60.4804 64.1712 58.4023C66.8444 53.0421 64.6578 55.9746 71.6635 53.8156C71.6732 53.8126 71.6827 53.8086 71.6924 53.8055C72.8002 54.5449 74.1992 55.1351 75.9932 55.0956C78.8763 55.0322 80.3516 52.6174 80.6201 52.1304C81.2806 51.0847 81.5862 49.9047 81.4812 48.8015ZM79.1178 50.4517L79.0834 50.4992L79.0476 50.5739C78.9723 50.7136 78.0171 52.406 75.9799 52.4508C75.4227 52.4631 74.9207 52.4006 74.4588 52.287C74.3558 52.2586 74.2528 52.2304 74.1508 52.1946C75.5709 50.7665 76.6924 48.7482 77.5126 47.1076L79.3773 48.7896C79.4398 48.846 79.5185 48.9566 79.5382 49.1631C79.5717 49.5153 79.4185 49.9849 79.1178 50.4517ZM66.532 47.2442C66.2487 47.3682 65.9546 47.3007 65.7266 47.0949C65.558 46.9429 65.4254 46.7155 65.3597 46.4338C64.4612 42.5885 65.7315 39.5681 66.9928 37.039C67.2824 36.4582 67.8638 36.3 68.2913 36.6855C68.7187 37.0711 68.8304 37.8545 68.5407 38.4353C67.4341 40.6543 66.4946 42.8762 67.1434 45.6534C67.2983 46.3165 67.0246 47.0287 66.532 47.2442ZM61.6524 39.5271C60.9108 36.9776 61.7103 35.1478 61.7792 34.9981L61.8051 34.9487L61.8369 34.864C62.0439 34.3127 62.3089 33.9438 62.5639 33.8519C62.7134 33.7981 62.8194 33.8539 62.8819 33.9103L64.7465 35.5923C64.0488 36.9951 63.2476 38.7769 62.7513 40.7043C62.6639 41.035 62.5831 41.3693 62.5151 41.7082C62.1937 41.0963 61.901 40.3818 61.6524 39.5271Z" fill="#FFC75E"/>
<defs>
<linearGradient id="paint0_linear_52_15" x1="41.4998" y1="34.2669" x2="41.4998" y2="81" gradientUnits="userSpaceOnUse">
<stop stop-color="white"/>
<stop offset="1" stop-color="#999999"/>
</linearGradient>
<linearGradient id="paint1_linear_52_15" x1="47.9335" y1="20" x2="47.9335" y2="34.3694" gradientUnits="userSpaceOnUse">
<stop stop-color="white"/>
<stop offset="1" stop-color="#999999"/>
</linearGradient>
</defs>
</svg>
