<svg width="24" height="24" viewBox="0 0 24 24" fill="none" xmlns="http://www.w3.org/2000/svg">
<path d="M22 14.355C22 13.613 21.436 13.01 20.74 13.01H10.676C9.98001 13.01 9.41602 13.614 9.41602 14.355C9.41602 15.097 9.98001 15.701 10.676 15.701H20.74C21.436 15.701 22 15.098 22 14.355Z" fill="#B3B1B0"/>
<path d="M22 14.355H9.41602C9.41602 15.097 9.98001 15.701 10.676 15.701H20.74C21.436 15.701 22 15.098 22 14.355Z" fill="#9C9A99"/>
<path d="M4.78111 14.355H4.73511C4.75011 15.091 5.05011 15.829 5.63211 16.423C6.94111 17.759 8.27111 19.073 9.59211 20.397L9.79611 20.595C10.2651 20.898 10.2691 21.845 9.97811 22.266C9.66811 22.715 9.26811 22.995 8.70711 22.995C8.68711 22.995 8.66611 22.995 8.64511 22.994C8.44511 22.987 8.28111 22.907 8.11511 22.813C8.08011 22.793 8.04511 22.773 8.01111 22.751C8.96311 23.593 10.2211 24 11.5991 24C13.0831 24 14.4291 23.489 15.4031 22.506L17.9921 19.869C18.5021 19.355 18.4841 18.504 17.9531 17.969C17.6811 17.694 17.3261 17.556 16.9751 17.556C16.6431 17.556 16.3161 17.68 16.0691 17.93L13.3931 20.537C12.9311 21.004 12.2911 21.199 11.5851 21.199C10.8791 21.199 10.2391 21.004 9.77511 20.537L5.47811 16.174C5.02411 15.716 4.79011 15.052 4.78111 14.355Z" fill="#C98F1B"/>
<path d="M4.73497 14.355H1.91797C1.92397 15.84 2.51297 17.3 3.65697 18.456C4.98097 19.792 6.31397 21.119 7.64097 22.452C7.75397 22.566 7.87697 22.667 8.01097 22.752C8.04497 22.773 8.07897 22.794 8.11497 22.814C8.28097 22.908 8.44497 22.988 8.64497 22.995C8.66597 22.996 8.68597 22.996 8.70697 22.996C9.26797 22.996 9.66797 22.716 9.97797 22.267C10.269 21.846 10.264 20.899 9.79597 20.596L9.59197 20.398C8.27097 19.074 6.93997 17.76 5.63197 16.424C5.04997 15.83 4.74997 15.091 4.73497 14.355Z" fill="#060605"/>
<path d="M3.483 18.187L7.795 22.548C8.767 23.527 10.113 24 11.599 24C13.083 24 14.429 23.489 15.403 22.506L17.992 19.869C18.502 19.355 18.484 18.504 17.953 17.969C17.423 17.434 16.578 17.416 16.069 17.93L13.393 20.537C12.931 21.004 12.291 21.199 11.585 21.199C10.879 21.199 10.239 21.004 9.775 20.537L5.478 16.174C5.015 15.706 4.781 15.024 4.781 14.311C4.781 13.598 5.015 12.954 5.478 12.487L9.763 8.107C10.227 7.639 10.879 7.462 11.585 7.462C12.292 7.462 12.932 7.657 13.393 8.124L16.069 10.73C16.579 11.245 17.423 11.227 17.954 10.692C18.485 10.156 18.503 9.306 17.993 8.791L15.404 6.156C14.756 5.51 13.933 5.04 13.012 4.826L12.979 4.82L15.426 2.316C15.938 1.802 15.92 0.949998 15.389 0.414998C14.859 -0.120002 14.013 -0.138002 13.502 0.376998L3.483 10.476C2.509 11.458 2 12.814 2 14.312C2 15.81 2.509 17.206 3.483 18.187Z" fill="#E7A41F"/>
<path d="M8.11507 22.814C7.93907 22.717 7.78307 22.595 7.64107 22.453C6.31407 21.12 4.98107 19.793 3.65707 18.457C1.66907 16.448 1.35507 13.521 2.87207 11.137C3.10607 10.767 3.40107 10.443 3.71107 10.133C6.91907 6.91899 10.1261 3.70299 13.3341 0.488994C13.9591 -0.137006 14.8311 -0.163006 15.4131 0.422994C15.9721 0.984994 15.9401 1.87799 15.3361 2.48799C14.5661 3.26399 13.7961 4.03799 13.0261 4.81299C12.9851 4.93499 12.8861 5.01299 12.8001 5.09999C11.9371 5.97699 11.0491 6.82999 10.2001 7.71899C10.0891 7.83399 9.93807 7.90499 9.82807 8.02399C8.40507 9.44699 6.96607 10.854 5.56307 12.296C4.42707 13.463 4.46707 15.234 5.63107 16.424C6.94007 17.76 8.27007 19.074 9.59107 20.398L9.79507 20.596C10.2641 20.899 10.2681 21.846 9.97707 22.267C9.65607 22.733 9.23807 23.017 8.64407 22.995C8.44507 22.987 8.28107 22.907 8.11507 22.814Z" fill="#070706"/>
<path d="M13.0211 4.826C12.9771 4.941 12.8831 5.016 12.8001 5.099C11.9371 5.976 11.0491 6.829 10.2001 7.718C10.0891 7.833 9.93807 7.904 9.82807 8.023C8.40507 9.446 6.96607 10.853 5.56307 12.295C4.98307 12.891 4.71007 13.644 4.73607 14.397H4.78207C4.78107 14.368 4.78007 14.339 4.78007 14.31C4.78007 13.597 5.01407 12.953 5.47707 12.486L9.76207 8.106C10.2261 7.638 10.8781 7.461 11.5841 7.461C12.2911 7.461 12.9311 7.656 13.3921 8.123L16.0681 10.729C16.3161 10.98 16.6441 11.104 16.9761 11.104C17.3261 11.104 17.6811 10.966 17.9531 10.691C18.4841 10.155 18.5021 9.305 17.9921 8.79L15.4031 6.155C14.7571 5.51 13.9381 5.041 13.0211 4.826ZM14.4001 0C14.2061 0.001 14.0141 0.045 13.8381 0.132C14.0211 0.049 14.2121 0.005 14.4001 0Z" fill="#EAB03C"/>
<path d="M14.432 0C14.422 0 14.411 0 14.401 0C14.212 0.004 14.022 0.049 13.839 0.132C13.661 0.213 13.49 0.332 13.335 0.488C10.127 3.702 6.91903 6.918 3.71203 10.132C3.40203 10.442 3.10803 10.766 2.87303 11.136C2.22103 12.161 1.90703 13.287 1.91903 14.398H4.73703C4.71103 13.645 4.98503 12.892 5.56403 12.296C6.96603 10.854 8.40603 9.447 9.82903 8.024C9.94003 7.905 10.09 7.835 10.201 7.719C11.05 6.83 11.938 5.977 12.801 5.1C12.884 5.016 12.978 4.941 13.022 4.827C13.024 4.822 13.025 4.818 13.027 4.813C13.797 4.038 14.567 3.264 15.337 2.488C15.941 1.878 15.974 0.985 15.414 0.423C15.133 0.14 14.786 0 14.432 0Z" fill="#272726"/>
</svg>
