<svg width="124" height="26" viewBox="0 0 124 26" fill="none" xmlns="http://www.w3.org/2000/svg">
<path d="M29.8042 20V5.8H32.8442V19.18L31.1642 17.44H39.3842V20H29.8042ZM45.6556 20.24C44.5623 20.24 43.609 20.0133 42.7956 19.56C41.9956 19.0933 41.369 18.44 40.9156 17.6C40.4756 16.76 40.2556 15.7733 40.2556 14.64C40.2556 13.5067 40.4756 12.5267 40.9156 11.7C41.369 10.86 41.9956 10.2067 42.7956 9.74C43.5956 9.27333 44.5423 9.04 45.6356 9.04C46.7023 9.04 47.629 9.27333 48.4156 9.74C49.2023 10.2067 49.809 10.8733 50.2356 11.74C50.6756 12.6067 50.8956 13.64 50.8956 14.84V15.44H43.3556C43.3956 16.2933 43.6223 16.9267 44.0356 17.34C44.4623 17.7533 45.0223 17.96 45.7156 17.96C46.2223 17.96 46.6423 17.8533 46.9756 17.64C47.3223 17.4267 47.569 17.1 47.7156 16.66L50.7356 16.84C50.4556 17.9067 49.8623 18.74 48.9556 19.34C48.049 19.94 46.949 20.24 45.6556 20.24ZM43.3556 13.6H47.8156C47.7756 12.8133 47.5556 12.2267 47.1556 11.84C46.769 11.4533 46.2623 11.26 45.6356 11.26C45.009 11.26 44.489 11.4667 44.0756 11.88C43.6756 12.28 43.4356 12.8533 43.3556 13.6ZM57.5697 20.24C56.4764 20.24 55.523 20.0133 54.7097 19.56C53.9097 19.0933 53.283 18.44 52.8297 17.6C52.3897 16.76 52.1697 15.7733 52.1697 14.64C52.1697 13.5067 52.3897 12.5267 52.8297 11.7C53.283 10.86 53.9097 10.2067 54.7097 9.74C55.5097 9.27333 56.4564 9.04 57.5497 9.04C58.6164 9.04 59.543 9.27333 60.3297 9.74C61.1164 10.2067 61.723 10.8733 62.1497 11.74C62.5897 12.6067 62.8097 13.64 62.8097 14.84V15.44H55.2697C55.3097 16.2933 55.5364 16.9267 55.9497 17.34C56.3764 17.7533 56.9364 17.96 57.6297 17.96C58.1364 17.96 58.5564 17.8533 58.8897 17.64C59.2364 17.4267 59.483 17.1 59.6297 16.66L62.6497 16.84C62.3697 17.9067 61.7764 18.74 60.8697 19.34C59.963 19.94 58.863 20.24 57.5697 20.24ZM55.2697 13.6H59.7297C59.6897 12.8133 59.4697 12.2267 59.0697 11.84C58.683 11.4533 58.1764 11.26 57.5497 11.26C56.923 11.26 56.403 11.4667 55.9897 11.88C55.5897 12.28 55.3497 12.8533 55.2697 13.6ZM68.7717 20C67.6651 20 66.8517 19.7467 66.3317 19.24C65.8117 18.72 65.5517 17.9 65.5517 16.78V6.76H68.5517V16.42C68.5517 16.94 68.6584 17.2933 68.8717 17.48C69.0984 17.6667 69.4317 17.76 69.8717 17.76H71.3717V20H68.7717ZM63.8317 11.52V9.28H71.3717V11.52H63.8317ZM73.3356 20V9.28H76.1756L76.2756 12.4L76.0556 12.34C76.229 11.26 76.5356 10.48 76.9756 10C77.4156 9.52 78.0223 9.28 78.7956 9.28H79.7756V11.76H78.7956C78.2356 11.76 77.7756 11.8333 77.4156 11.98C77.0556 12.1267 76.7823 12.36 76.5956 12.68C76.4223 13 76.3356 13.4333 76.3356 13.98V20H73.3356ZM84.3281 20.24C83.2215 20.24 82.3148 19.9867 81.6081 19.48C80.9148 18.96 80.5681 18.24 80.5681 17.32C80.5681 16.3733 80.8615 15.6467 81.4481 15.14C82.0481 14.62 82.9281 14.24 84.0881 14L87.5481 13.32C87.5481 12.6267 87.3881 12.1067 87.0681 11.76C86.7615 11.4 86.3148 11.22 85.7281 11.22C85.1548 11.22 84.7081 11.3533 84.3881 11.62C84.0681 11.8733 83.8615 12.2533 83.7681 12.76L80.7481 12.62C80.9481 11.4467 81.4748 10.56 82.3281 9.96C83.1948 9.34667 84.3281 9.04 85.7281 9.04C87.3281 9.04 88.5281 9.42 89.3281 10.18C90.1415 10.94 90.5481 12.0533 90.5481 13.52V17.18C90.5481 17.4867 90.5948 17.6933 90.6881 17.8C90.7948 17.8933 90.9481 17.94 91.1481 17.94H91.4481V20C91.3548 20.0267 91.2015 20.0533 90.9881 20.08C90.7881 20.1067 90.5881 20.12 90.3881 20.12C89.9615 20.12 89.5615 20.0467 89.1881 19.9C88.8281 19.7533 88.5348 19.5067 88.3081 19.16C88.0815 18.8 87.9681 18.2933 87.9681 17.64L88.2281 17.84C88.0948 18.32 87.8548 18.74 87.5081 19.1C87.1748 19.46 86.7348 19.74 86.1881 19.94C85.6548 20.14 85.0348 20.24 84.3281 20.24ZM85.0481 18.18C85.5415 18.18 85.9748 18.0867 86.3481 17.9C86.7215 17.7 87.0148 17.4133 87.2281 17.04C87.4415 16.6667 87.5481 16.2267 87.5481 15.72V15.2L85.1081 15.72C84.6281 15.8133 84.2615 15.9733 84.0081 16.2C83.7681 16.4133 83.6481 16.6933 83.6481 17.04C83.6481 17.4 83.7681 17.68 84.0081 17.88C84.2481 18.08 84.5948 18.18 85.0481 18.18ZM97.6878 20.24C96.5945 20.24 95.6411 20.0133 94.8278 19.56C94.0145 19.0933 93.3811 18.44 92.9278 17.6C92.4745 16.76 92.2478 15.7733 92.2478 14.64C92.2478 13.5067 92.4745 12.5267 92.9278 11.7C93.3811 10.86 94.0145 10.2067 94.8278 9.74C95.6411 9.27333 96.5945 9.04 97.6878 9.04C98.6345 9.04 99.4811 9.20667 100.228 9.54C100.988 9.87333 101.601 10.3533 102.068 10.98C102.534 11.6067 102.821 12.36 102.928 13.24L99.8278 13.38C99.7345 12.7133 99.4945 12.2133 99.1078 11.88C98.7345 11.5333 98.2611 11.36 97.6878 11.36C96.9411 11.36 96.3611 11.6467 95.9478 12.22C95.5345 12.7933 95.3278 13.6 95.3278 14.64C95.3278 15.68 95.5345 16.4933 95.9478 17.08C96.3611 17.6533 96.9411 17.94 97.6878 17.94C98.2611 17.94 98.7411 17.7667 99.1278 17.42C99.5145 17.06 99.7478 16.52 99.8278 15.8L102.928 15.92C102.834 16.8 102.554 17.5667 102.088 18.22C101.634 18.86 101.028 19.36 100.268 19.72C99.5211 20.0667 98.6611 20.24 97.6878 20.24ZM109.406 20.24C108.312 20.24 107.359 20.0133 106.546 19.56C105.746 19.0933 105.119 18.44 104.666 17.6C104.226 16.76 104.006 15.7733 104.006 14.64C104.006 13.5067 104.226 12.5267 104.666 11.7C105.119 10.86 105.746 10.2067 106.546 9.74C107.346 9.27333 108.292 9.04 109.386 9.04C110.452 9.04 111.379 9.27333 112.166 9.74C112.952 10.2067 113.559 10.8733 113.986 11.74C114.426 12.6067 114.646 13.64 114.646 14.84V15.44H107.106C107.146 16.2933 107.372 16.9267 107.786 17.34C108.212 17.7533 108.772 17.96 109.466 17.96C109.972 17.96 110.392 17.8533 110.726 17.64C111.072 17.4267 111.319 17.1 111.466 16.66L114.486 16.84C114.206 17.9067 113.612 18.74 112.706 19.34C111.799 19.94 110.699 20.24 109.406 20.24ZM107.106 13.6H111.566C111.526 12.8133 111.306 12.2267 110.906 11.84C110.519 11.4533 110.012 11.26 109.386 11.26C108.759 11.26 108.239 11.4667 107.826 11.88C107.426 12.28 107.186 12.8533 107.106 13.6ZM116.5 20V9.28H119.34L119.44 12.4L119.22 12.34C119.393 11.26 119.7 10.48 120.14 10C120.58 9.52 121.186 9.28 121.96 9.28H122.94V11.76H121.96C121.4 11.76 120.94 11.8333 120.58 11.98C120.22 12.1267 119.946 12.36 119.76 12.68C119.586 13 119.5 13.4333 119.5 13.98V20H116.5Z" fill="url(#paint0_linear_1_38)"/>
<g clip-path="url(#clip0_1_38)">
<path d="M3.47041 18.8056L7.59564 16.6792L8.71602 14.8848L9.48216 10.3274L7.23636 11.4326L7.61589 12.9446C7.74746 13.4699 7.42865 13.9982 6.90844 14.1288C6.83051 14.15 6.74955 14.1591 6.67061 14.1591C6.23339 14.1571 5.83767 13.8626 5.72431 13.4213L5.15249 11.1441C5.04116 10.6998 5.25673 10.2363 5.66966 10.0298C5.66966 10.0298 11.0367 7.39539 11.062 7.38628C11.4729 7.19601 11.9405 7.11606 12.4202 7.18589C13.0528 7.27496 13.5922 7.59781 13.9667 8.05628C13.996 8.08361 16.5627 11.2443 16.5627 11.2443L18.5362 11.7757C19.0564 11.9184 19.3641 12.4517 19.2234 12.974C19.106 13.4092 18.7123 13.6956 18.2822 13.6956C18.1982 13.6956 18.1122 13.6845 18.0271 13.6622L15.7479 13.0489C15.5496 12.9932 15.3735 12.8798 15.2439 12.721L14.2227 11.4589L13.489 15.5335L14.7743 16.5557C15.1579 16.8634 15.3219 17.3674 15.1903 17.84L13.7035 23.1747C13.5538 23.7131 13.0629 24.0664 12.5295 24.0664C12.4212 24.0664 12.3109 24.0512 12.2016 24.0208C11.5529 23.8407 11.1733 23.1686 11.3545 22.5209L12.6237 17.9645L10.6521 16.4484L9.48722 18.2611C9.37083 18.4493 9.20687 18.5991 9.01053 18.7023L4.58674 20.9795C4.4076 21.0726 4.21935 21.1161 4.02807 21.1161C3.58478 21.1161 3.16173 20.8753 2.94312 20.4553C2.63646 19.848 2.87227 19.1143 3.47041 18.8056Z" fill="url(#paint1_linear_1_38)"/>
<path d="M13.3604 7.19804C11.925 7.19804 10.7614 6.03442 10.7614 4.59902C10.7614 3.16362 11.925 2 13.3604 2C14.7958 2 15.9595 3.16362 15.9595 4.59902C15.9595 6.03442 14.7958 7.19804 13.3604 7.19804Z" fill="url(#paint2_linear_1_38)"/>
</g>
<path d="M25.4961 12.4188C25.4648 12.0895 25.3323 11.7974 25.1326 11.6173L24.4499 11.0014C24.7446 10.3108 24.3692 10.1051 24.2408 9.98929C24.1053 9.86706 22.4323 8.35802 22.4323 8.35802C22.4323 8.35802 20.7594 6.84898 20.6239 6.72676C20.4955 6.61093 20.2114 6.2218 19.8482 6.85067L19.1655 6.23483C18.9658 6.05472 18.7146 6.00072 18.4762 6.08662C18.1872 6.19082 17.9355 6.49037 17.766 6.93117C17.6816 7.1189 17.2832 8.11443 17.6633 9.42094C17.8564 10.0849 18.118 10.5706 18.3905 10.9435C18.4497 11.0263 18.5106 11.1078 18.5754 11.1869C18.5756 11.1893 18.5758 11.1917 18.5761 11.1941C19.0005 14.6438 19.4301 13.2571 18.4631 15.1962C18.0882 15.9479 17.4432 15.0132 17.1554 15.5903C16.8677 16.1672 16.5072 15.1536 16.2211 15.888C16.0457 16.3382 16.8035 17.4779 17.549 18.1503C18.2943 18.8226 19.366 19.3332 19.6092 18.9441C20.0058 18.3094 19.1717 18.2454 19.4594 17.6685C19.7471 17.0915 18.8594 16.6435 19.2343 15.8918C20.2013 13.9527 19.4104 15.0136 21.9446 14.2326C21.9481 14.2315 21.9516 14.2301 21.9551 14.2289C22.3558 14.4964 22.8619 14.7099 23.5108 14.6956C24.5538 14.6727 25.0875 13.7991 25.1846 13.623C25.4235 13.2447 25.5341 12.8178 25.4961 12.4188ZM24.6412 13.0157L24.6287 13.0329L24.6158 13.0599C24.5885 13.1104 24.243 13.7227 23.5061 13.7389C23.3045 13.7433 23.1229 13.7207 22.9558 13.6796C22.9185 13.6693 22.8813 13.6591 22.8444 13.6462C23.3581 13.1296 23.7638 12.3995 24.0605 11.806L24.735 12.4144C24.7577 12.4349 24.7861 12.4749 24.7932 12.5496C24.8054 12.677 24.75 12.8468 24.6412 13.0157ZM20.0884 11.8554C19.9859 11.9003 19.8795 11.8758 19.797 11.8014C19.736 11.7464 19.688 11.6642 19.6643 11.5623C19.3392 10.1712 19.7988 9.07863 20.255 8.16375C20.3598 7.95366 20.5701 7.89642 20.7247 8.03589C20.8794 8.17535 20.9198 8.45875 20.815 8.66884C20.4147 9.47157 20.0748 10.2753 20.3095 11.28C20.3655 11.5198 20.2665 11.7775 20.0884 11.8554ZM18.3232 9.06381C18.0549 8.14152 18.3441 7.47962 18.3691 7.42548L18.3784 7.40761L18.3899 7.37695C18.4648 7.17753 18.5606 7.04408 18.6529 7.01084C18.707 6.99137 18.7453 7.01157 18.7679 7.03197L19.4425 7.64041C19.19 8.14786 18.9002 8.79241 18.7207 9.48966C18.6891 9.60929 18.6598 9.73022 18.6353 9.85279C18.519 9.63144 18.4131 9.373 18.3232 9.06381Z" fill="#FFC75E"/>
<defs>
<linearGradient id="paint0_linear_1_38" x1="75.5993" y1="2.01603e-08" x2="76.4007" y2="26" gradientUnits="userSpaceOnUse">
<stop stop-color="white"/>
<stop offset="1" stop-color="#999999"/>
</linearGradient>
<linearGradient id="paint1_linear_1_38" x1="11.0331" y1="7.16095" x2="11.0331" y2="24.0664" gradientUnits="userSpaceOnUse">
<stop stop-color="white"/>
<stop offset="1" stop-color="#999999"/>
</linearGradient>
<linearGradient id="paint2_linear_1_38" x1="13.3604" y1="2" x2="13.3604" y2="7.19804" gradientUnits="userSpaceOnUse">
<stop stop-color="white"/>
<stop offset="1" stop-color="#999999"/>
</linearGradient>
<clipPath id="clip0_1_38">
<rect width="22.0663" height="22.0664" fill="white" transform="matrix(-1 0 0 1 22.0663 2)"/>
</clipPath>
</defs>
</svg>
