<svg width="17" height="17" viewBox="0 0 17 17" fill="none" xmlns="http://www.w3.org/2000/svg">
<path d="M2.96085 14.1785H14.0392C14.1103 14.1795 14.1808 14.1653 14.246 14.1368C14.3111 14.1082 14.3694 14.0661 14.417 14.0132C14.4554 13.9702 14.4844 13.9196 14.5019 13.8647C14.5194 13.8098 14.525 13.7517 14.5185 13.6944C14.3937 12.7239 14.037 11.7977 13.4784 10.9942C12.9199 10.1907 12.176 9.53359 11.3097 9.07847C10.9412 9.44827 10.5033 9.74169 10.0212 9.94189C9.53902 10.1421 9.02209 10.2452 8.50002 10.2452C7.97795 10.2452 7.46102 10.1421 6.97886 9.94189C6.49671 9.74169 6.05882 9.44827 5.6903 9.07847C4.82403 9.53359 4.08015 10.1907 3.52161 10.9942C2.96308 11.7977 2.60632 12.7239 2.48155 13.6944C2.47429 13.7529 2.47959 13.8121 2.4971 13.8683C2.51461 13.9245 2.54392 13.9763 2.58308 14.0203C2.63124 14.0719 2.68983 14.1127 2.75496 14.14C2.82009 14.1673 2.89027 14.1804 2.96085 14.1785Z" fill="#010002"/>
<path d="M6.00439 8.64167C6.06814 8.71014 6.13661 8.77389 6.20508 8.83528C6.83465 9.40207 7.65178 9.7157 8.4989 9.7157C9.34602 9.7157 10.1631 9.40207 10.7927 8.83528C10.8638 8.77441 10.9316 8.70978 10.9958 8.64167C11.0595 8.57319 11.1233 8.50472 11.1823 8.43153C11.591 7.92527 11.8481 7.31369 11.9239 6.66747C11.9996 6.02125 11.8909 5.36678 11.6104 4.77973C11.3298 4.19267 10.8889 3.697 10.3385 3.35002C9.78809 3.00303 9.15073 2.81889 8.50008 2.81889C7.84944 2.81889 7.21208 3.00303 6.66168 3.35002C6.11128 3.697 5.67032 4.19267 5.38977 4.77973C5.10923 5.36678 5.00055 6.02125 5.0763 6.66747C5.15206 7.31369 5.40915 7.92527 5.81786 8.43153C5.87689 8.5 5.94064 8.57319 6.00439 8.64167Z" fill="#010002"/>
</svg>
